<svg xmlns="http://www.w3.org/2000/svg" version="1.0" width="512.000000pt" height="512.000000pt" viewBox="0 0 512.000000 512.000000" preserveAspectRatio="xMidYMid meet">

<g transform="translate(0.000000,512.000000) scale(0.100000,-0.100000)" fill="#09871b" stroke="none">
<path d="M2410 4864 c-197 -16 -386 -57 -608 -130 -248 -81 -511 -229 -712 -399 -118 -101 -314 -306 -382 -401 -300 -421 -448 -870 -448 -1359 0 -281 27 -457 104 -691 133 -397 280 -645 550 -922 328 -337 737 -561 1199 -656 181 -38 545 -47 752 -20 489 64 957 296 1314 654 374 374 588 811 662 1350 17 118 16 423 0 550 -54 413 -212 800 -459 1123 -83 108 -109 133 -70 66 227 -388 322 -732 322 -1169 1 -282 -21 -411 -125 -724 -74 -224 -138 -356 -278 -568 -115 -174 -181 -258 -285 -366 -249 -259 -602 -455 -964 -538 -218 -49 -584 -56 -792 -14 -765 154 -1377 751 -1534 1497 -129 617 17 1202 420 1683 221 263 586 504 901 594 216 62 273 69 498 62 218 -6 301 -19 440 -67 144 -50 195 -78 266 -149 113 -114 136 -198 79 -296 -36 -63 -89 -109 -150 -129 -25 -8 -108 -26 -185 -40 -77 -14 -162 -33 -190 -42 -86 -27 -198 -90 -279 -158 -43 -36 -85 -66 -95 -67 -9 -1 -83 -2 -166 -2 l-150 -1 -99 -40 c-54 -22 -99 -44 -99 -50 -1 -14 212 -104 248 -104 17 -1 58 12 93 29 65 30 176 64 194 58 5 -2 -24 -25 -64 -50 -41 -26 -82 -56 -92 -67 -17 -19 -17 -20 21 -31 21 -6 81 -15 133 -19 54 -4 108 -14 125 -23 l30 -16 -39 -7 c-146 -28 -446 48 -704 177 -89 44 -110 51 -157 50 -124 -3 -211 -79 -243 -213 -26 -106 -92 -536 -107 -699 -22 -246 -44 -326 -108 -396 -19 -22 -51 -66 -70 -100 -20 -33 -43 -67 -52 -74 -8 -7 -15 -20 -15 -28 0 -13 4 -13 21 5 20 20 24 20 58 6 43 -17 61 -38 61 -70 0 -23 14 -31 24 -14 3 5 28 14 55 21 l49 11 43 -44 43 -44 39 49 c46 59 71 70 115 52 17 -7 32 -9 32 -5 0 21 -43 129 -61 155 -34 45 -20 115 78 410 78 235 87 270 91 351 2 57 -2 116 -12 160 -8 38 -13 71 -11 73 5 6 61 -26 74 -42 7 -8 17 -46 21 -83 8 -65 11 -70 55 -108 26 -22 85 -76 133 -119 129 -118 239 -164 315 -131 15 6 17 0 17 -65 0 -59 8 -96 44 -204 25 -72 54 -169 66 -216 27 -108 84 -224 133 -273 21 -21 41 -36 44 -33 11 10 -20 66 -49 91 -34 29 -23 31 48 11 27 -8 68 -20 92 -26 45 -12 59 -40 20 -40 -44 0 -51 -14 -48 -82 5 -97 2 -123 -20 -180 -11 -28 -18 -53 -17 -55 2 -1 14 15 26 37 12 22 24 40 26 40 3 0 10 -11 17 -25 12 -21 13 -9 10 85 -5 122 2 140 49 140 40 0 111 67 138 129 11 27 35 114 51 193 17 78 45 197 62 263 25 93 32 143 33 223 1 56 5 105 8 109 4 3 17 -6 28 -22 20 -25 27 -27 73 -23 91 8 396 210 396 263 0 5 11 33 24 62 17 35 35 57 56 68 18 9 34 15 36 13 2 -2 -10 -53 -27 -113 -37 -130 -36 -158 15 -370 20 -82 39 -188 43 -235 5 -82 5 -87 -21 -117 -29 -35 -46 -81 -46 -126 0 -24 2 -26 19 -17 58 31 121 -3 141 -77 l14 -47 14 42 c19 57 41 68 99 48 26 -9 55 -23 65 -33 17 -15 18 -15 18 8 0 31 26 69 48 69 9 0 32 -9 51 -21 18 -11 35 -18 38 -15 7 6 -18 50 -34 59 -7 4 -23 27 -34 50 -12 23 -47 69 -78 103 -40 42 -62 77 -75 115 -27 80 -31 238 -12 419 22 209 25 373 7 433 -15 53 -77 129 -124 153 -55 29 -111 20 -267 -44 -80 -33 -188 -72 -240 -88 -87 -27 -106 -29 -230 -27 -74 1 -155 6 -180 11 l-45 8 30 19 c20 14 44 20 77 18 l48 -1 -35 41 c-19 22 -35 44 -35 48 0 17 75 -18 115 -53 37 -33 50 -38 90 -38 47 0 137 23 245 61 71 26 240 110 240 120 0 4 -25 20 -56 35 -42 20 -80 29 -148 35 -50 5 -145 19 -211 33 -140 30 -219 32 -333 10 -45 -9 -85 -14 -89 -10 -10 10 37 55 82 79 57 31 225 30 345 -2 132 -36 187 -42 259 -30 85 13 148 48 220 123 134 140 150 259 65 479 -100 260 -219 394 -449 507 -149 73 -287 119 -420 139 -77 11 -343 21 -415 15z" fill="#09871b"/>
<path d="M2879 3630 c-52 -9 -120 -41 -102 -47 7 -3 30 1 50 8 61 20 195 14 338 -16 72 -15 164 -30 206 -34 72 -6 75 -6 71 14 -3 19 -9 20 -71 17 -52 -3 -98 3 -192 26 -140 34 -233 44 -300 32z" fill="#09871b"/>
<path d="M1814 3405 c40 -30 361 -146 400 -145 6 1 0 7 -14 15 l-25 14 54 51 55 51 -74 -37 c-46 -23 -87 -36 -109 -36 -21 0 -89 23 -156 51 -121 52 -169 64 -131 36z" fill="#09871b"/>
<path d="M3440 3360 c-109 -50 -281 -105 -361 -116 -43 -6 -50 -4 -85 28 -69 60 -79 64 -39 16 44 -54 71 -63 152 -53 100 12 427 129 468 166 23 22 -38 3 -135 -41z" fill="#09871b"/>
<path d="M2238 3253 c7 -3 16 -2 19 1 4 3 -2 6 -13 5 -11 0 -14 -3 -6 -6z" fill="#09871b"/>
<path d="M2888 3243 c12 -2 32 -2 45 0 12 2 2 4 -23 4 -25 0 -35 -2 -22 -4z" fill="#09871b"/>
<path d="M2358 3233 c17 -2 47 -2 65 0 17 2 3 4 -33 4 -36 0 -50 -2 -32 -4z" fill="#09871b"/>
<path d="M3570 2989 c-11 -19 -25 -50 -30 -70 -5 -19 -26 -54 -46 -77 l-36 -42 26 0 c26 0 33 -15 51 -110 3 -19 15 -62 25 -95 11 -33 26 -93 35 -134 17 -82 40 -134 30 -66 -3 22 -24 119 -46 214 -44 191 -44 198 -3 329 13 42 21 78 19 80 -2 2 -13 -11 -25 -29z" fill="#09871b"/>
<path d="M1694 2994 c4 -11 12 -50 18 -87 13 -98 -1 -175 -82 -419 -38 -116 -63 -205 -56 -197 17 18 35 68 99 280 54 176 71 219 85 219 5 0 18 -9 30 -21 13 -11 32 -19 44 -17 19 3 16 7 -19 31 -48 33 -73 79 -73 134 0 43 -18 84 -39 91 -10 3 -12 0 -7 -14z" fill="#09871b"/>
<path d="M1756 2752 c-3 -6 -33 -98 -66 -204 -32 -106 -66 -210 -75 -232 -9 -21 -14 -41 -11 -44 3 -3 20 -1 38 4 33 10 33 10 39 90 5 70 12 91 58 179 62 119 71 160 44 194 -13 16 -22 20 -27 13z" fill="#09871b"/>
<path d="M3480 2731 c0 -16 14 -73 31 -127 26 -81 32 -116 32 -191 0 -51 3 -93 6 -93 32 1 31 20 -11 228 -39 195 -58 256 -58 183z" fill="#09871b"/>
<path d="M3030 2624 c0 -8 5 -12 10 -9 6 4 8 11 5 16 -9 14 -15 11 -15 -7z" fill="#09871b"/>
<path d="M2235 2520 c3 -5 8 -10 11 -10 2 0 4 5 4 10 0 6 -5 10 -11 10 -5 0 -7 -4 -4 -10z" fill="#09871b"/>
<path d="M3631 2334 c0 -11 3 -14 6 -6 3 7 2 16 -1 19 -3 4 -6 -2 -5 -13z" fill="#09871b"/>
<path d="M2574 1838 c3 -7 9 -21 12 -30 8 -23 16 -23 32 3 16 24 16 24 -21 33 -22 5 -27 4 -23 -6z" fill="#09871b"/>
</g>
</svg>