<svg xmlns="http://www.w3.org/2000/svg" height="800" width="1200" viewBox="-3.81 -2.2367 33.02 13.4202"><path d="M25.4 8.74219l-1.67605.00317-3.03777-6.69007-2.91077 6.69007h-1.68627L19.91466.21343l1.57268-.00105zM6.75746 2.69805C6.73559 1.20015 5.5051.15487 3.76414.15487H0V8.7309h1.3709V1.40723h2.31492c.7754 0 1.60902.38524 1.62278 1.30916.012.82162-.63112 1.33562-1.7212 1.37972l-.02117.0014-.83009.00706 2.76402 4.6408 1.6196-.00318s-1.32997-2.24402-2.1643-3.6516c1.22838-.4378 1.8161-1.40617 1.802-2.39254m5.41725.9779c-1.43968-.38876-2.00166-.71685-2.00166-1.38007 0-1.00506 1.288-1.10243 1.74978-1.10243.72566 0 1.64853.23178 2.19463.5013l.5789-1.08726C13.95872.24377 12.82913 0 11.88439 0c-2.01048 0-3.2692.87454-3.2692 2.36926 0 1.70744 1.77518 2.19004 3.15525 2.56117 1.43722.3884 1.93887.82585 1.93887 1.48942 0 1.10596-1.17475 1.27847-1.90183 1.27847-.99836 0-1.82245-.26635-2.62784-.74119l-.68721 1.11231c1.016.59831 2.0701.87736 3.31505.87736 2.07927 0 3.46075-1.02835 3.46075-2.62008 0-1.7773-1.68063-2.26942-3.0935-2.65077" fill="#be3a34"/></svg>